PathFileType	4	(X/Y/Z)	C:/Users/beibeiliu/ov580/test_trc/User3\sequence.43_training_dense_left.trc
DataRate	CameraRate	NumFrames	NumMarkers	Units	OrigDataRate	OrigDataStartFrame	OrigNumFrames
120	120	7	19	mm	120	25	121
Frame#	Time	ThumbCMC			ThumbMCP			ThumbIP			ThumbTip			IndexMCP			IndexPIP			IndexTip			MiddleMCP			MiddlePIP			MiddleTip			RingMCP			RingPIP			RingTip			PinkyMCP			PinkyPIP			PinkyTip			BackHand1			BackHand2			BackHand3	
		X0	Y0	Z0	X1	Y1	Z1	X2	Y2	Z2	X3	Y3	Z3	X4	Y4	Z4	X5	Y5	Z5	X6	Y6	Z6	X7	Y7	Z7	X8	Y8	Z8	X9	Y9	Z9	X10	Y10	Z10	X11	Y11	Z11	X12	Y12	Z12	X13	Y13	Z13	X14	Y14	Z14	X15	Y15	Z15	X16	Y16	Z16	X17	Y17	Z17	X18	Y18	Z18	
24	0.2	-169.468	-5.56472	38.1311	-180.464	-0.183264	12.1492	-189.184	4.48603	-9.40976	-201.989	8.46299	-29.694	-137.26	-22.0674	-33.0636	-132.255	-20.8108	-59.163	-125.402	-12.4376	-86.1045	-106.683	-23.4924	-31.7254	-90.8633	-1.41083	-51.6403	-88.1157	35.9915	-32.2504	-85.6854	-17.2525	-16.9761	-75.9155	9.90318	-27.3585	-83.7717	33.2681	-5.75427	-73.6029	-9.56539	1.47271	-69.0477	15.6297	-0.135459	-89.8486	32.2322	14.4826	-114.424	-41.6475	27.6941	-117.701	-42.9226	57.566	-144.198	-33.5152	35.9494	
25	0.208333	-170.49	-8.97406	39.9757	-189.62	-4.22059	15.7816	-203.427	-1.2278	-11.6586	-212.826	4.41239	-28.9751	-143.09	-31.902	-35.1858	-142.614	-29.9733	-64.1875	-137.576	-20.8131	-89.0714	-115.54	-36.0252	-35.1018	-104.105	-21.0707	-62.8683	-92.1033	15.1939	-66.1317	-92.8614	-27.7567	-21.3651	-79.6613	-4.88071	-40.3021	-79.2477	27.7997	-34.3328	-80.7482	-16.6873	-4.0601	-72.5959	7.14829	-13.4445	-81.9971	32.636	-7.78777	-115.104	-44.3687	31.2779	-125.057	-44.0471	55.4134	-148.918	-36.2137	34.3796	
26	0.216667	-175.31	-6.21786	36.2824	-190.956	0.559738	12.6528	-200.112	5.7022	-12.8492	-206.073	13.308	-32.9892	-152.036	-28.4367	-33.4901	-146.866	-30.8855	-61.9609	-143.534	-22.8965	-86.581	-118.848	-38.9539	-35.3897	-113.685	-31.7764	-63.7033	-100.031	-9.32369	-86.5801	-102.237	-32.3229	-26.0785	-88.0284	-19.8153	-49.3198	-78.3435	7.14841	-62.5683	-82.5601	-23.6124	-4.52758	-74.1709	-5.79751	-23.6122	-67.8829	16.809	-31.2268	-116.393	-43.265	25.3801	-123.706	-43.5663	58.6784	-152.638	-34.187	32.048	
27	0.225	-163.387	11.9882	37.6656	-178.141	28.0752	15.2867	-184.884	37.2412	-15.9585	-186.924	48.2186	-35.2235	-149.438	-13.2585	-33.6905	-151.798	-10.5304	-65.4975	-142.424	-7.15534	-88.254	-130.4	-28.2238	-40.2781	-120.597	-27.7518	-67.2271	-109.212	-12.847	-98.627	-107.509	-32.5869	-26.5672	-95.7044	-27.8048	-54.2411	-82.3055	-18.223	-73.0313	-88.2003	-32.1467	-8.91593	-80.1999	-24.0335	-27.7862	-65.5436	-8.67263	-45.2116	-126.144	-35.5481	23.994	-127.271	-36.7812	55.1446	-152.553	-21.5307	29.0534	
28	0.233333	-136.745	46.2373	38.4434	-129.97	61.584	19.4907	-125.826	76.8101	-7.61594	-118.979	86.1243	-26.3258	-146.098	23.452	-35.2868	-144.617	26.6413	-61.2131	-137.026	29.0681	-91.0739	-142.538	1.37319	-37.1556	-138.766	0.533177	-70.0818	-126.65	0.900165	-96.1343	-128.911	-18.2989	-32.4069	-123.685	-19.691	-58.837	-111.295	-20.762	-80.5289	-115.386	-31.2276	-14.075	-103.135	-35.1371	-37.0756	-88.0016	-33.6599	-56.5216	-141.734	-20.3686	18.6319	-144.48	-17.51	53.256	-153.762	11.5704	32.4833	
29	0.241667	-107.406	55.0164	44.927	-92.2297	65.8912	21.0221	-77.1353	83.2051	0.92912	-64.5576	86.9113	-19.0626	-135.822	49.2257	-27.9946	-134.61	59.3193	-55.7507	-127.244	64.3053	-83.7402	-148.755	25.9213	-34.9574	-148.077	29.261	-64.6634	-139.379	29.784	-98.5306	-143.647	4.90181	-29.5555	-142.44	1.05747	-56.689	-133.758	-7.14689	-80.9922	-134.841	-15.8216	-15.7095	-129.04	-25.6752	-40.1154	-114.499	-30.4115	-59.3507	-148.204	9.03916	24.6807	-147.29	5.91654	52.1887	-142.272	38.2793	37.2532	
30	0.25	-94.4678	49.1382	43.0174	-70.645	58.17	21.7349	-55.2081	59.9242	1.47137	-42.4611	59.835	-21.9384	-127.728	68.4895	-21.8985	-129.142	75.4203	-45.1383	-122.942	81.3623	-76.2072	-149.388	43.0833	-23.4446	-155.926	49.9719	-55.0959	-151.373	49.3063	-86.4332	-151.187	20.9004	-25.898	-150.657	14.7392	-54.5749	-135.465	10.0072	-78.6183	-144.679	-7.14035	-16.2843	-138.348	-17.0058	-36.1726	-119.033	-25.8564	-57.6383	-152.707	18.4616	26.3049	-147.276	13.7897	57.5433	-134.053	45.061	41.7894	
